<?xml version="1.0" encoding="utf-8"?>
<!-- Generator: Adobe Illustrator 15.0.2, SVG Export Plug-In . SVG Version: 6.00 Build 0)  -->
<!DOCTYPE svg PUBLIC "-//W3C//DTD SVG 1.1//EN" "http://www.w3.org/Graphics/SVG/1.1/DTD/svg11.dtd">
<svg version="1.1" xmlns="http://www.w3.org/2000/svg" xmlns:xlink="http://www.w3.org/1999/xlink" x="0px" y="0px" width="1920px"
	 height="1080px" viewBox="0 0 1920 1080" enable-background="new 0 0 1920 1080" xml:space="preserve">
<g id="ServiceLayer">
	<rect id="ServiceBackground" fill="#4D4D4D" width="1920" height="1659"/>
	<g id="ServiceStandard">
		
			<circle id="ServiceStandardCircle" fill="#BEBFBB" stroke="#333333" stroke-width="9" stroke-miterlimit="10" cx="785.8926" cy="269.79" r="125"/>
		
			<text id="ServiceStandardCaption" transform="matrix(0.9955 0 0 1 856.2793 75.4629)" fill="#333333" font-family="'MyriadPro-Regular'" font-size="58.9051">Mywork3.some.pl</text>
		<line id="InfoLine2" fill="none" stroke="#333333" x1="868.3447" y1="179.25" x2="948.6855" y2="90.5986"/>
		<line id="InfoLine1" fill="#333333" stroke="#333333" x1="855" y1="90.5" x2="1283" y2="90.5"/>
	</g>
	<g id="ServiceFull">
		<g id="Service">
			
				<ellipse id="ServiceCircle" fill="#8CC63F" stroke="#333333" stroke-width="9" stroke-miterlimit="10" cx="263.7119" cy="253.5088" rx="229.6611" ry="232.2031"/>
			
				<text id="ServiceDomain" transform="matrix(1 0 0 1 76.4409 270.5088)" fill="#4D4D4D" stroke="#000000" stroke-width="0.25" font-family="'MyriadPro-Regular'" font-size="60" letter-spacing="-1">MyFansite.com</text>
		</g>
		
			<circle id="ServiceButton1" opacity="0.5" fill="#F2F2F2" stroke="#736357" stroke-width="9" stroke-miterlimit="10" cx="413.7119" cy="71.5088" r="50"/>
		
			<circle id="ServiceButton2" opacity="0.5" fill="#F2F2F2" stroke="#736357" stroke-width="9" stroke-miterlimit="10" cx="474.7119" cy="165.5088" r="50"/>
		
			<circle id="ServiceButton3" opacity="0.5" fill="#F2F2F2" stroke="#736357" stroke-width="9" stroke-miterlimit="10" cx="493.7119" cy="278.5088" r="50"/>
	</g>
</g>
<g id="ServiceDetailLayer">
	<g id="ServiceDetail">
		
			<circle id="ServiceDetailCircle" fill="#CCCCCC" stroke="#333333" stroke-width="9" stroke-miterlimit="10" cx="1487" cy="663.875" r="362.5"/>
		<g id="ServiceDetailGraphs">
			<g id="ProcessorUsage">
				<rect x="1196.5" y="521.5" fill="#FFFFFF" stroke="#4D4D4D" width="171" height="114"/>
				<text transform="matrix(1 0 0 1 1234.4355 650.5)" fill="#4D4D4D" font-family="'GillSans'" font-size="14">Processor Usage</text>
			</g>
			<g id="MemoryUsage">
				<rect x="1399.5" y="521.5" fill="#FFFFFF" stroke="#4D4D4D" width="171" height="114"/>
				<text transform="matrix(1 0 0 1 1440.6621 650.5)" fill="#4D4D4D" font-family="'GillSans'" font-size="14">Memory Usage</text>
			</g>
			<g id="DiskUsage">
				<rect x="1602.5" y="521.5" fill="#FFFFFF" stroke="#4D4D4D" width="171" height="114"/>
				<text transform="matrix(1 0 0 1 1656.2471 650.5)" fill="#4D4D4D" font-family="'GillSans'" font-size="14">Disk Usage</text>
			</g>
			<g id="DiskIOWrite">
				<rect x="1196.5" y="673.5" fill="#FFFFFF" stroke="#4D4D4D" width="171" height="114"/>
				<text transform="matrix(1 0 0 1 1240.4824 802.5)" fill="#4D4D4D" font-family="'GillSans'" font-size="14">Disk IO Write</text>
			</g>
			<g id="DiskIORead">
				<rect x="1399.5" y="673.5" fill="#FFFFFF" stroke="#4D4D4D" width="171" height="114"/>
				<text transform="matrix(1 0 0 1 1446.6299 802.5)" fill="#4D4D4D" font-family="'GillSans'" font-size="14">Disk IO Read</text>
			</g>
			<g id="NetworkUsage">
				<rect x="1602.5" y="676.5" fill="#FFFFFF" stroke="#4D4D4D" width="171" height="114"/>
				<text transform="matrix(1 0 0 1 1642.9062 805.5)" fill="#4D4D4D" font-family="'GillSans'" font-size="14">Network Usage</text>
			</g>
		</g>
		
			<text id="ServiceDetailAdditionalInfoSubtitle" transform="matrix(1 0 0 1 1404.791 867)" fill="#4D4D4D" font-family="'GillSans'" font-size="18">additional information</text>
		<g id="ServiceDetailTitle">
			<g id="ServiceDetailCaption">
				
					<text id="ServiceDetailDomain_2_" transform="matrix(1.0111 0 0 1 1333.8672 435.749)" fill="#4D4D4D" stroke="#000000" stroke-width="0.25" font-family="'MyriadPro-Regular'" font-size="49.6437" letter-spacing="-0.9891">MyFansite.com</text>
				<line fill="#333333" stroke="#333333" x1="1336" y1="446.5" x2="1633" y2="446.5"/>
			</g>
			<text id="ServiceDetailSubtitle" transform="matrix(1 0 0 1 1299.4775 472)"><tspan x="0" y="0" fill="#4D4D4D" font-family="'GillSans'" font-size="18">detailed information about service resources</tspan><tspan x="326.8916" y="0" fill="#4D4D4D" font-family="'GillSans'" font-size="18"> </tspan><tspan x="331.1729" y="0" fill="#4D4D4D" font-family="'GillSans'" font-size="18">usage </tspan></text>
		</g>
	</g>
</g>
<g id="ServiceInfoLayer">
	<g id="ServiceFullInfo">
		<rect id="ServiceInfoElement6" x="79" y="533" fill="#808080" width="395" height="347"/>
		<path id="ServiceInfoElement5" fill="#808080" d="M474,867.9922c0,94.4395-88.9839,170.9922-198.75,170.9922
			c-109.7666,0-198.75-76.5527-198.75-170.9922C76.5,773.5547,165.4834,697,275.25,697C385.0161,697,474,773.5547,474,867.9922z"/>
		
			<line id="ServiceInfoElement4" fill="none" stroke="#333333" stroke-width="9" stroke-miterlimit="10" x1="76.5" y1="703" x2="76.5" y2="872"/>
		
			<line id="ServiceInfoElement3" fill="none" stroke="#333333" stroke-width="9" stroke-miterlimit="10" x1="476.5" y1="708" x2="476.5" y2="872"/>
		<path id="ServiceInfoElement2" fill="none" stroke="#333333" stroke-width="9" stroke-miterlimit="10" d="M76.5,872
			c0,91.7891,87.8877,166.0625,196.5,166.0625"/>
		<path id="ServiceInfoElement1" fill="none" stroke="#333333" stroke-width="9" stroke-miterlimit="10" d="M476.5,872
			c0,91.7881-91.0186,166.0625-203.5,166.0625"/>
		<g id="ServiceInfo">
			<text id="ServiceInfoLabels" transform="matrix(1 0 0 1 135.4111 867)"><tspan x="0" y="0" fill="#333333" font-family="'Optima-Regular'" font-size="30">RUNTIME:</tspan><tspan x="2.3105" y="36" fill="#333333" font-family="'Optima-Regular'" font-size="30">MEMORY</tspan><tspan x="132.2993" y="36" fill="#333333" font-family="'Optima-Regular'" font-size="30">:</tspan><tspan x="1.6802" y="72" fill="#333333" font-family="'Optima-Regular'" font-size="30">IO WRITE:</tspan><tspan x="13.3501" y="108" fill="#333333" font-family="'Optima-Regular'" font-size="30">IO READ:</tspan></text>
			<text id="ServiceInfoContent" transform="matrix(1 0 0 1 284.4507 867)"><tspan x="0" y="0" fill="#333333" font-family="'Optima-Regular'" font-size="30">21m 34s</tspan><tspan x="0" y="36" fill="#333333" font-family="'Optima-Regular'" font-size="30">237 MiB</tspan><tspan x="0" y="72" fill="#333333" font-family="'Optima-Regular'" font-size="30">787 MiB</tspan><tspan x="0" y="108" fill="#333333" font-family="'Optima-Regular'" font-size="30">280 MiB</tspan></text>
		</g>
	</g>
</g>
</svg>
